<svg xmlns="http://www.w3.org/2000/svg" xmlns:xlink="http://www.w3.org/1999/xlink" width="500" zoomAndPan="magnify" viewBox="0 0 375 374.999991" height="500" preserveAspectRatio="xMidYMid meet" version="1.0"><defs><g/></defs><rect x="-37.5" width="450" fill="#ffffff" y="-37.499999" height="449.999989" fill-opacity="1"/><rect x="-37.5" width="450" fill="#ffffff" y="-37.499999" height="449.999989" fill-opacity="1"/><path fill="#7ed957" d="M 235.832031 116.316406 C 235.589844 116.183594 230.546875 113.410156 224.726562 113.316406 C 225.003906 107.511719 222.59375 102.308594 222.476562 102.058594 C 222.042969 101.144531 221.015625 100.675781 220.042969 100.953125 C 219.777344 101.027344 214.273438 102.640625 210.117188 106.660156 C 206.214844 102.332031 200.820312 100.34375 200.558594 100.25 C 199.609375 99.90625 198.546875 100.308594 198.054688 101.195312 C 197.851562 101.566406 193.066406 110.351562 195.996094 118.183594 C 197.035156 120.957031 198.878906 123.167969 200.839844 124.890625 C 199.9375 125.097656 199.050781 125.375 198.191406 125.753906 C 194.511719 127.367188 191.664062 130.429688 190.25 134.257812 C 185.644531 130.332031 179.554688 129.945312 174.570312 132.753906 C 173.296875 133.441406 172.121094 134.285156 171.101562 135.242188 C 170.816406 135.503906 170.507812 135.707031 170.191406 135.882812 C 170.449219 133.929688 170.648438 130.484375 169.601562 127.230469 C 169.761719 123.9375 169.628906 115.359375 164.34375 111.261719 C 157.972656 106.320312 148.0625 108.988281 147.648438 109.101562 C 146.761719 109.347656 146.144531 110.152344 146.128906 111.074219 C 146.125 111.507812 146.058594 121.804688 152.429688 126.746094 C 156.574219 129.957031 161.792969 130.523438 164.945312 130.523438 C 165.378906 130.523438 165.761719 130.511719 166.105469 130.496094 C 166.429688 132.78125 166.160156 134.992188 165.996094 135.984375 C 165.605469 135.789062 165.226562 135.558594 164.882812 135.246094 C 161.222656 131.882812 156.8125 130.410156 152.492188 131.097656 C 141.007812 132.898438 137.40625 146.886719 139.226562 158.550781 C 141.234375 171.421875 149.542969 184.1875 159.117188 184.1875 C 161.773438 184.1875 164.308594 183.242188 166.589844 181.21875 C 167.414062 180.46875 168.574219 180.464844 169.386719 181.175781 C 171.113281 182.757812 173.066406 183.726562 175.199219 184.058594 C 176.199219 184.210938 177.210938 184.207031 178.222656 184.078125 C 177.03125 191.542969 177.671875 193.382812 179.394531 194.191406 C 181.210938 194.984375 183.027344 193.417969 184.414062 192.003906 C 192.089844 184.402344 210.960938 156.042969 216.84375 146.984375 C 219.382812 142.949219 219.816406 137.285156 217.15625 132.320312 C 219.914062 132.695312 222.667969 132.597656 225.390625 131.570312 C 233.191406 128.628906 236.628906 119.226562 236.773438 118.828125 C 237.117188 117.871094 236.714844 116.808594 235.832031 116.316406 Z M 219.414062 105.585938 C 220.65625 109.28125 221.25 113.878906 219.640625 117.4375 C 218.050781 120.953125 214.253906 123.542969 210.675781 125.042969 C 210.652344 125.050781 210.632812 125.058594 210.609375 125.070312 C 210.597656 125.035156 210.585938 125.003906 210.574219 124.964844 C 209.542969 121.859375 208.996094 118.222656 209.769531 115.054688 C 210.890625 110.464844 215.054688 107.402344 219.414062 105.585938 Z M 199.863281 116.726562 C 198.265625 112.453125 199.824219 107.472656 200.878906 104.914062 C 202.648438 105.792969 205.433594 107.445312 207.464844 109.914062 C 207.457031 109.925781 207.453125 109.941406 207.445312 109.953125 C 206.46875 111.546875 205.890625 113.171875 205.5625 115.015625 C 205.0625 117.800781 205.261719 120.636719 205.863281 123.375 C 205.875 123.429688 205.882812 123.488281 205.894531 123.542969 C 203.605469 122.054688 201.011719 119.789062 199.863281 116.726562 Z M 154.953125 123.464844 C 151.488281 120.773438 150.582031 115.441406 150.34375 112.753906 C 153.363281 112.242188 158.566406 112.023438 161.820312 114.542969 C 163.71875 116.015625 164.675781 118.667969 165.136719 121.304688 C 164.675781 121.019531 164.1875 120.753906 163.648438 120.523438 C 162.59375 120.078125 161.386719 120.570312 160.941406 121.621094 C 160.492188 122.675781 160.984375 123.890625 162.03125 124.339844 C 163.136719 124.8125 163.960938 125.523438 164.578125 126.371094 C 161.996094 126.332031 158.019531 125.839844 154.953125 123.464844 Z M 175.824219 179.960938 C 174.515625 179.757812 173.285156 179.136719 172.136719 178.082031 C 169.699219 175.945312 166.195312 175.972656 163.835938 178.132812 C 162.691406 179.144531 161.457031 179.757812 160.152344 179.960938 C 153.3125 181.039062 145.273438 170.519531 143.304688 157.910156 C 141.894531 148.847656 144.15625 136.601562 153.132812 135.195312 C 156.5 134.652344 159.589844 136.007812 162.101562 138.3125 C 165.472656 141.371094 170.539062 141.367188 173.902344 138.289062 C 174.683594 137.558594 175.566406 136.921875 176.558594 136.386719 C 180.644531 134.089844 185.554688 134.765625 188.957031 138.789062 C 185.835938 150.25 181.234375 168.070312 178.996094 179.691406 C 177.917969 180.023438 176.851562 180.113281 175.824219 179.960938 Z M 213.367188 144.742188 C 213.324219 144.8125 211.199219 148.070312 208.039062 152.796875 L 204.605469 151.234375 C 203.566406 150.757812 202.34375 151.222656 201.871094 152.265625 C 201.398438 153.308594 201.859375 154.535156 202.898438 155.007812 L 205.703125 156.285156 C 203.699219 159.257812 201.449219 162.566406 199.121094 165.925781 L 198.160156 165.488281 C 197.125 165.011719 195.898438 165.476562 195.425781 166.519531 C 194.957031 167.5625 195.414062 168.792969 196.453125 169.265625 L 196.710938 169.382812 C 193.3125 174.21875 185.9375 184.519531 181.796875 188.761719 C 182.078125 185.167969 183.21875 179.496094 183.976562 175.9375 L 184.269531 176.070312 C 184.542969 176.195312 184.835938 176.253906 185.121094 176.253906 C 185.90625 176.253906 186.65625 175.804688 187 175.039062 C 187.472656 173.996094 187.011719 172.765625 185.972656 172.292969 L 184.886719 171.800781 C 185.953125 167.082031 187.058594 162.527344 188.175781 158.082031 L 189.332031 158.605469 C 190.363281 159.078125 191.59375 158.625 192.066406 157.574219 C 192.535156 156.53125 192.078125 155.304688 191.039062 154.832031 L 189.210938 154 C 191.324219 145.753906 192.765625 140.554688 193.992188 136.007812 C 194.933594 133.125 197.066406 130.769531 199.847656 129.550781 C 202.621094 128.332031 205.792969 128.359375 208.546875 129.625 C 214.578125 132.355469 216.46875 139.789062 213.367188 144.742188 Z M 223.9375 127.691406 C 220.886719 128.84375 217.480469 128.371094 214.859375 127.625 C 218.402344 125.691406 221.734375 122.839844 223.398438 119.152344 C 223.648438 118.605469 223.855469 118.050781 224.027344 117.496094 C 224.03125 117.484375 224.035156 117.472656 224.039062 117.464844 C 227.230469 117.386719 230.292969 118.390625 232.125 119.148438 C 230.898438 121.632812 228.191406 126.085938 223.9375 127.691406 Z M 223.9375 127.691406 " fill-opacity="1" fill-rule="nonzero"/><path fill="#7ed957" d="M 152.757812 160.390625 C 152.632812 159.253906 151.617188 158.445312 150.484375 158.558594 C 149.351562 158.679688 148.53125 159.703125 148.652344 160.839844 C 148.683594 161.136719 149.496094 168.128906 155.027344 173.492188 C 155.847656 174.285156 157.15625 174.265625 157.949219 173.441406 C 158.742188 172.617188 158.71875 171.304688 157.898438 170.507812 C 153.488281 166.234375 152.769531 160.484375 152.757812 160.390625 Z M 152.757812 160.390625 " fill-opacity="1" fill-rule="nonzero"/><g fill="#000000" fill-opacity="1"><g transform="translate(79.628906, 229.789291)"><g><path d="M 5.886719 11.902344 L 5.917969 11.902344 C 8.125 11.902344 8.253906 3.261719 8.734375 -3.617188 L 8.734375 -3.648438 C 8.734375 -4.734375 10.269531 -5.3125 12.382812 -5.4375 C 13.34375 -5.4375 13.789062 -5.792969 13.789062 -6.175781 C 13.789062 -6.589844 13.308594 -7.007812 12.414062 -7.039062 C 8.925781 -7.167969 8.925781 -7.359375 8.925781 -8 C 8.925781 -10.527344 8.992188 -13.054688 9.183594 -15.582031 C 9.34375 -17.628906 15.902344 -16.445312 15.902344 -18.652344 L 15.902344 -18.75 C 15.871094 -19.292969 13.148438 -20.347656 10.238281 -20.347656 C 8.542969 -20.347656 6.75 -19.996094 5.40625 -18.941406 C 3.871094 -17.726562 3.359375 -11.613281 3.261719 -7.101562 C 2.238281 -7.007812 0.542969 -6.78125 0.511719 -6.238281 C 0.511719 -5.757812 2.144531 -5.3125 3.261719 -5.054688 C 3.359375 1.984375 3.933594 11.839844 5.886719 11.902344 Z M 5.886719 11.902344 "/></g></g></g><g fill="#000000" fill-opacity="1"><g transform="translate(95.46501, 229.789291)"><g><path d="M 14.972656 -5.4375 L 15.039062 -5.4375 C 15.453125 -5.4375 16.796875 -5.792969 16.988281 -7.136719 C 17.019531 -7.292969 17.054688 -7.519531 17.054688 -7.808594 C 17.054688 -9.4375 16.191406 -12.511719 13.34375 -13.085938 C 13.054688 -13.148438 12.765625 -13.183594 12.511719 -13.183594 C 10.398438 -13.183594 9.054688 -11.519531 8.382812 -11.519531 C 8.160156 -11.519531 8 -11.742188 7.964844 -12.351562 C 7.648438 -14.238281 6.367188 -15.101562 4.960938 -15.101562 C 3.101562 -15.101562 1.121094 -13.597656 1.121094 -11.199219 L 1.121094 -10.621094 C 1.121094 -8.382812 1.3125 3.007812 2.367188 6.65625 C 2.589844 7.488281 3.742188 8.03125 4.734375 8.03125 C 5.375 8.03125 5.949219 7.808594 6.238281 7.292969 C 7.007812 6.175781 7.871094 -0.191406 8.253906 -6.589844 C 8.320312 -8.09375 10.175781 -10.300781 11.742188 -10.300781 C 12.125 -10.300781 12.476562 -10.175781 12.796875 -9.886719 C 14.140625 -8.636719 14.015625 -7.519531 14.269531 -6.144531 C 14.332031 -5.757812 14.621094 -5.4375 14.972656 -5.4375 Z M 14.972656 -5.4375 "/></g></g></g><g fill="#000000" fill-opacity="1"><g transform="translate(112.996705, 229.789291)"><g><path d="M 13.054688 -6.816406 C 13.183594 -7.261719 13.277344 -7.871094 13.277344 -8.574219 C 13.277344 -10.8125 12.351562 -13.886719 9.152344 -14.78125 C 8.382812 -15.003906 7.648438 -15.101562 7.007812 -15.101562 C 1.886719 -15.101562 0.769531 -8.605469 0.640625 -2.6875 L 0.640625 -2.078125 C 0.640625 2.304688 2.527344 9.34375 7.167969 9.503906 L 7.328125 9.503906 C 10.972656 9.503906 13.566406 4.605469 13.566406 2.046875 C 13.566406 1.121094 13.246094 0.511719 12.511719 0.511719 C 11.644531 0.542969 11.613281 1.28125 11.519531 1.984375 C 11.167969 4.289062 10.496094 6.78125 8.03125 6.78125 C 7.933594 6.78125 7.808594 6.75 7.679688 6.75 C 6.175781 6.589844 5.472656 5.3125 5.472656 0.351562 C 5.472656 -0.734375 5.503906 -2.015625 5.566406 -3.488281 C 7.039062 -3.710938 12.285156 -3.839844 13.054688 -6.816406 Z M 8.925781 -12.605469 C 10.078125 -12.316406 11.039062 -10.335938 11.039062 -8.734375 C 11.039062 -7.773438 10.6875 -6.976562 9.855469 -6.71875 C 8.894531 -6.429688 8.125 -6.304688 7.519531 -6.304688 C 6.429688 -6.304688 5.886719 -6.65625 5.886719 -7.136719 L 5.886719 -7.292969 C 5.886719 -8.285156 6.304688 -12.671875 8.445312 -12.671875 C 8.605469 -12.671875 8.765625 -12.636719 8.925781 -12.605469 Z M 8.925781 -12.605469 "/></g></g></g><g fill="#000000" fill-opacity="1"><g transform="translate(127.361179, 229.789291)"><g><path d="M 17.308594 3.488281 C 17.308594 -1.664062 5.984375 -1.695312 5.214844 -7.328125 C 5.183594 -7.679688 5.152344 -8.125 5.152344 -8.636719 C 5.152344 -10.878906 5.757812 -14.046875 8.445312 -14.207031 L 8.605469 -14.207031 C 10.75 -14.207031 11.390625 -11.804688 11.390625 -9.277344 C 11.390625 -8.351562 11.292969 -7.390625 11.167969 -6.527344 C 11.167969 -6.429688 11.132812 -6.335938 11.132812 -6.238281 C 11.132812 -5.214844 12.125 -4.605469 13.214844 -4.605469 C 14.300781 -4.605469 15.484375 -5.183594 15.996094 -6.496094 C 16.507812 -7.582031 16.765625 -8.671875 16.765625 -9.726562 C 16.765625 -13.183594 14.109375 -16.15625 9.726562 -16.222656 L 9.4375 -16.222656 C 4.289062 -16.222656 1.152344 -12.957031 1.054688 -8.957031 L 1.054688 -8.734375 C 1.054688 -0.734375 12.636719 0.289062 12.636719 3.808594 C 12.636719 4.03125 12.605469 4.253906 12.511719 4.511719 C 12.125 5.4375 10.972656 6.109375 9.46875 6.109375 L 9.375 6.109375 C 7.261719 6.109375 5.121094 4.894531 3.96875 2.847656 C 3.582031 2.175781 3.070312 1.886719 2.558594 1.886719 C 1.535156 1.886719 0.542969 3.007812 0.542969 4.289062 C 0.542969 4.605469 0.609375 4.960938 0.769531 5.3125 C 1.886719 7.230469 4.734375 9.246094 9.308594 9.277344 L 9.40625 9.277344 C 13.566406 9.277344 17.308594 7.101562 17.308594 3.488281 Z M 17.308594 3.488281 "/></g></g></g><g fill="#000000" fill-opacity="1"><g transform="translate(145.404746, 229.789291)"><g><path d="M 6.304688 -22.042969 C 5.984375 -23.324219 4.734375 -23.964844 3.488281 -23.964844 C 2.113281 -23.964844 0.703125 -23.164062 0.542969 -21.53125 C 0.449219 -20.667969 0.414062 -18.941406 0.414062 -16.765625 C 0.414062 -9.023438 0.929688 4.605469 1.664062 7.421875 C 1.953125 8.480469 2.878906 8.925781 3.742188 8.925781 C 4.703125 8.925781 5.597656 8.382812 5.632812 7.519531 C 5.632812 7.070312 5.984375 -4.0625 6.398438 -4.671875 C 7.136719 -5.824219 8.160156 -6.429688 9.4375 -6.429688 C 9.566406 -6.429688 9.695312 -6.398438 9.824219 -6.398438 C 11.679688 -6.207031 12.222656 -3.421875 12.222656 -0.222656 C 12.222656 2.175781 11.933594 4.800781 11.582031 6.78125 C 11.582031 6.878906 11.550781 6.941406 11.550781 7.039062 C 11.550781 8.0625 12.636719 8.605469 13.789062 8.605469 C 14.972656 8.605469 16.222656 8.03125 16.476562 6.816406 C 16.863281 4.542969 17.117188 2.335938 17.117188 0.289062 C 17.117188 -4.671875 15.515625 -8.414062 10.015625 -8.480469 C 8.320312 -8.320312 6.6875 -7.359375 6.269531 -6.621094 L 6.269531 -7.359375 C 6.269531 -14.046875 6.558594 -17.339844 6.558594 -19.484375 C 6.558594 -20.507812 6.496094 -21.277344 6.304688 -22.042969 Z M 6.304688 -22.042969 "/></g></g></g><g fill="#000000" fill-opacity="1"><g transform="translate(163.352331, 229.789291)"><g><path d="M 5.886719 11.902344 L 5.917969 11.902344 C 8.125 11.902344 8.253906 3.261719 8.734375 -3.617188 L 8.734375 -3.648438 C 8.734375 -4.734375 10.269531 -5.3125 12.382812 -5.4375 C 13.34375 -5.4375 13.789062 -5.792969 13.789062 -6.175781 C 13.789062 -6.589844 13.308594 -7.007812 12.414062 -7.039062 C 8.925781 -7.167969 8.925781 -7.359375 8.925781 -8 C 8.925781 -10.527344 8.992188 -13.054688 9.183594 -15.582031 C 9.34375 -17.628906 15.902344 -16.445312 15.902344 -18.652344 L 15.902344 -18.75 C 15.871094 -19.292969 13.148438 -20.347656 10.238281 -20.347656 C 8.542969 -20.347656 6.75 -19.996094 5.40625 -18.941406 C 3.871094 -17.726562 3.359375 -11.613281 3.261719 -7.101562 C 2.238281 -7.007812 0.542969 -6.78125 0.511719 -6.238281 C 0.511719 -5.757812 2.144531 -5.3125 3.261719 -5.054688 C 3.359375 1.984375 3.933594 11.839844 5.886719 11.902344 Z M 5.886719 11.902344 "/></g></g></g><g fill="#000000" fill-opacity="1"><g transform="translate(179.188435, 229.789291)"><g><path d="M 6.847656 -12.414062 C 2.496094 -12.414062 0.542969 -8.0625 0.542969 -3.582031 C 0.542969 1.214844 2.785156 6.207031 6.71875 6.207031 L 7.070312 6.207031 C 11.519531 5.886719 13.980469 0.992188 13.980469 -3.679688 C 13.980469 -8.125 11.742188 -12.414062 6.847656 -12.414062 Z M 6.464844 3.808594 L 6.367188 3.808594 C 4.832031 3.808594 4.09375 0.320312 4.09375 -3.070312 C 4.09375 -6.304688 4.765625 -9.4375 6.144531 -9.503906 L 6.238281 -9.503906 C 8.160156 -9.503906 8.894531 -6.78125 8.894531 -3.808594 C 8.894531 -0.191406 7.808594 3.808594 6.464844 3.808594 Z M 6.464844 3.808594 "/></g></g></g><g fill="#000000" fill-opacity="1"><g transform="translate(194.352703, 229.789291)"><g><path d="M 14.972656 -5.4375 L 15.039062 -5.4375 C 15.453125 -5.4375 16.796875 -5.792969 16.988281 -7.136719 C 17.019531 -7.292969 17.054688 -7.519531 17.054688 -7.808594 C 17.054688 -9.4375 16.191406 -12.511719 13.34375 -13.085938 C 13.054688 -13.148438 12.765625 -13.183594 12.511719 -13.183594 C 10.398438 -13.183594 9.054688 -11.519531 8.382812 -11.519531 C 8.160156 -11.519531 8 -11.742188 7.964844 -12.351562 C 7.648438 -14.238281 6.367188 -15.101562 4.960938 -15.101562 C 3.101562 -15.101562 1.121094 -13.597656 1.121094 -11.199219 L 1.121094 -10.621094 C 1.121094 -8.382812 1.3125 3.007812 2.367188 6.65625 C 2.589844 7.488281 3.742188 8.03125 4.734375 8.03125 C 5.375 8.03125 5.949219 7.808594 6.238281 7.292969 C 7.007812 6.175781 7.871094 -0.191406 8.253906 -6.589844 C 8.320312 -8.09375 10.175781 -10.300781 11.742188 -10.300781 C 12.125 -10.300781 12.476562 -10.175781 12.796875 -9.886719 C 14.140625 -8.636719 14.015625 -7.519531 14.269531 -6.144531 C 14.332031 -5.757812 14.621094 -5.4375 14.972656 -5.4375 Z M 14.972656 -5.4375 "/></g></g></g><g fill="#000000" fill-opacity="1"><g transform="translate(211.884398, 229.789291)"><g><path d="M 13.054688 -6.816406 C 13.183594 -7.261719 13.277344 -7.871094 13.277344 -8.574219 C 13.277344 -10.8125 12.351562 -13.886719 9.152344 -14.78125 C 8.382812 -15.003906 7.648438 -15.101562 7.007812 -15.101562 C 1.886719 -15.101562 0.769531 -8.605469 0.640625 -2.6875 L 0.640625 -2.078125 C 0.640625 2.304688 2.527344 9.34375 7.167969 9.503906 L 7.328125 9.503906 C 10.972656 9.503906 13.566406 4.605469 13.566406 2.046875 C 13.566406 1.121094 13.246094 0.511719 12.511719 0.511719 C 11.644531 0.542969 11.613281 1.28125 11.519531 1.984375 C 11.167969 4.289062 10.496094 6.78125 8.03125 6.78125 C 7.933594 6.78125 7.808594 6.75 7.679688 6.75 C 6.175781 6.589844 5.472656 5.3125 5.472656 0.351562 C 5.472656 -0.734375 5.503906 -2.015625 5.566406 -3.488281 C 7.039062 -3.710938 12.285156 -3.839844 13.054688 -6.816406 Z M 8.925781 -12.605469 C 10.078125 -12.316406 11.039062 -10.335938 11.039062 -8.734375 C 11.039062 -7.773438 10.6875 -6.976562 9.855469 -6.71875 C 8.894531 -6.429688 8.125 -6.304688 7.519531 -6.304688 C 6.429688 -6.304688 5.886719 -6.65625 5.886719 -7.136719 L 5.886719 -7.292969 C 5.886719 -8.285156 6.304688 -12.671875 8.445312 -12.671875 C 8.605469 -12.671875 8.765625 -12.636719 8.925781 -12.605469 Z M 8.925781 -12.605469 "/></g></g></g><g fill="#000000" fill-opacity="1"><g transform="translate(226.248872, 229.789291)"><g><path d="M 10.015625 -6.367188 C 10.015625 -6.269531 9.984375 -6.078125 9.984375 -5.917969 C 9.984375 -5.4375 10.140625 -4.863281 11.132812 -4.863281 L 11.421875 -4.863281 C 13.148438 -4.992188 13.054688 -6.078125 13.085938 -6.464844 C 13.148438 -6.941406 13.148438 -7.421875 13.148438 -7.933594 C 13.148438 -11.902344 11.453125 -16.191406 7.550781 -16.191406 L 7.488281 -16.191406 C 2.75 -16.125 0.671875 -10.972656 0.671875 -5.597656 C 0.671875 0.382812 3.261719 6.6875 7.648438 6.6875 L 7.742188 6.6875 C 8.734375 6.6875 12.253906 5.664062 12.828125 0.191406 L 12.828125 0.0976562 C 12.828125 -0.449219 12.191406 -0.769531 11.519531 -0.769531 C 10.8125 -0.769531 10.046875 -0.414062 10.015625 0.289062 C 9.855469 3.617188 8.542969 4.253906 7.839844 4.253906 C 6.335938 4.222656 5.472656 -0.480469 5.472656 -5.121094 C 5.472656 -9.46875 6.207031 -13.726562 7.871094 -13.917969 C 8 -13.917969 8.09375 -13.949219 8.222656 -13.949219 C 9.949219 -13.949219 10.367188 -12.191406 10.367188 -10.367188 C 10.367188 -8.703125 10.015625 -6.976562 10.015625 -6.398438 Z M 10.015625 -6.367188 "/></g></g></g><g fill="#000000" fill-opacity="1"><g transform="translate(240.069478, 229.789291)"><g><path d="M 12.605469 10.300781 C 12.703125 10.300781 12.828125 10.335938 12.925781 10.335938 C 14.621094 10.335938 15.515625 8.925781 15.964844 7.199219 C 16.285156 5.855469 17.46875 1.246094 17.46875 -3.359375 C 17.46875 -8.863281 15.804688 -14.398438 9.054688 -14.398438 L 8.511719 -14.398438 C 3.390625 -14.398438 0.769531 -11.421875 0.769531 -7.070312 C 0.769531 -6.847656 0.800781 -6.589844 0.800781 -6.367188 C 0.863281 -5.277344 1.824219 -4.671875 2.71875 -4.671875 C 3.519531 -4.671875 4.253906 -5.152344 4.253906 -6.238281 C 4.320312 -11.199219 6.78125 -12.765625 8.320312 -12.828125 C 12.511719 -12.703125 11.933594 -6.75 12.03125 -3.199219 L 12.03125 -3.070312 C 12.03125 -2.878906 12 -2.785156 11.902344 -2.785156 C 11.582031 -2.785156 10.527344 -4.03125 7.933594 -4.03125 C 3.390625 -4.03125 0.929688 0.0625 0.929688 3.328125 C 0.929688 3.933594 1.023438 4.480469 1.183594 4.992188 C 1.984375 7.519531 3.519531 9.757812 7.292969 9.757812 L 7.742188 9.757812 C 10.621094 9.597656 11.261719 7.582031 11.453125 7.582031 C 11.453125 7.582031 11.484375 7.582031 11.484375 7.613281 C 11.550781 7.808594 11.582031 8 11.582031 8.191406 C 11.582031 8.703125 11.390625 9.152344 11.390625 9.535156 C 11.390625 9.949219 11.613281 10.207031 12.605469 10.300781 Z M 8.0625 7.933594 C 5.664062 7.871094 5.183594 5.4375 5.183594 3.488281 C 5.183594 2.398438 5.34375 1.441406 5.375 1.214844 C 5.597656 -0.03125 6.367188 -2.144531 9.246094 -2.175781 C 10.460938 -2.175781 12.125 -1.152344 12.125 -0.769531 L 12.125 0.832031 C 12.125 1.535156 12.09375 2.625 11.839844 4.960938 C 11.773438 5.664062 10.300781 7.933594 8.09375 7.933594 Z M 8.0625 7.933594 "/></g></g></g><g fill="#000000" fill-opacity="1"><g transform="translate(258.46495, 229.789291)"><g><path d="M 17.308594 3.488281 C 17.308594 -1.664062 5.984375 -1.695312 5.214844 -7.328125 C 5.183594 -7.679688 5.152344 -8.125 5.152344 -8.636719 C 5.152344 -10.878906 5.757812 -14.046875 8.445312 -14.207031 L 8.605469 -14.207031 C 10.75 -14.207031 11.390625 -11.804688 11.390625 -9.277344 C 11.390625 -8.351562 11.292969 -7.390625 11.167969 -6.527344 C 11.167969 -6.429688 11.132812 -6.335938 11.132812 -6.238281 C 11.132812 -5.214844 12.125 -4.605469 13.214844 -4.605469 C 14.300781 -4.605469 15.484375 -5.183594 15.996094 -6.496094 C 16.507812 -7.582031 16.765625 -8.671875 16.765625 -9.726562 C 16.765625 -13.183594 14.109375 -16.15625 9.726562 -16.222656 L 9.4375 -16.222656 C 4.289062 -16.222656 1.152344 -12.957031 1.054688 -8.957031 L 1.054688 -8.734375 C 1.054688 -0.734375 12.636719 0.289062 12.636719 3.808594 C 12.636719 4.03125 12.605469 4.253906 12.511719 4.511719 C 12.125 5.4375 10.972656 6.109375 9.46875 6.109375 L 9.375 6.109375 C 7.261719 6.109375 5.121094 4.894531 3.96875 2.847656 C 3.582031 2.175781 3.070312 1.886719 2.558594 1.886719 C 1.535156 1.886719 0.542969 3.007812 0.542969 4.289062 C 0.542969 4.605469 0.609375 4.960938 0.769531 5.3125 C 1.886719 7.230469 4.734375 9.246094 9.308594 9.277344 L 9.40625 9.277344 C 13.566406 9.277344 17.308594 7.101562 17.308594 3.488281 Z M 17.308594 3.488281 "/></g></g></g><g fill="#000000" fill-opacity="1"><g transform="translate(276.508516, 229.789291)"><g><path d="M 9.917969 9.949219 C 16.765625 9.949219 17.917969 3.101562 17.917969 0.703125 C 17.917969 0.511719 17.886719 0.351562 17.886719 0.222656 C 17.789062 -0.609375 16.828125 -1.152344 15.835938 -1.152344 C 14.8125 -1.152344 13.757812 -0.542969 13.757812 0.929688 L 13.757812 1.214844 C 13.757812 3.617188 12.671875 7.773438 10.269531 7.808594 L 10.238281 7.808594 C 8.703125 7.808594 8.253906 3.679688 8.253906 -0.832031 C 8.253906 -6.144531 8.894531 -11.933594 9.085938 -11.933594 C 10.398438 -11.964844 13.5 -12.351562 14.078125 -12.734375 C 14.300781 -12.894531 14.398438 -13.085938 14.398438 -13.277344 C 14.398438 -13.726562 13.886719 -14.140625 13.535156 -14.269531 C 13.085938 -14.398438 10.109375 -14.621094 9.503906 -14.71875 C 9.183594 -14.71875 9.054688 -14.78125 9.054688 -15.070312 L 9.054688 -15.199219 C 9.246094 -16.605469 9.664062 -18.78125 9.664062 -20.574219 C 9.664062 -21.277344 9.597656 -21.917969 9.4375 -22.429688 C 9.246094 -22.972656 8.191406 -23.292969 7.199219 -23.292969 C 6.207031 -23.292969 5.277344 -23.003906 5.183594 -22.363281 C 4.960938 -21.949219 4.449219 -15.675781 4.320312 -14.652344 C 2.496094 -14.652344 0.863281 -13.789062 0.863281 -13.214844 L 0.863281 -13.183594 C 1.054688 -12.222656 2.558594 -12 4.03125 -11.839844 C 3.871094 -7.613281 3.679688 -3.933594 3.679688 -0.894531 C 3.679688 6.175781 4.734375 9.949219 9.757812 9.949219 Z M 9.917969 9.949219 "/></g></g></g></svg>